<mxfile host="app.diagrams.net" agent="Mozilla/5.0 (X11; Ubuntu; Linux x86_64; rv:138.0) Gecko/20100101 Firefox/138.0" version="27.0.6">
  <diagram name="Página-1" id="61u04HPuNEnDpFJPV7P2">
    <mxGraphModel grid="1" page="1" gridSize="10" guides="1" tooltips="1" connect="1" arrows="1" fold="1" pageScale="1" pageWidth="827" pageHeight="1169" math="0" shadow="0">
      <root>
        <mxCell id="0" />
        <mxCell id="1" parent="0" />
        <mxCell id="kNyuiYO4TecIgT9Q91eP-1" value=":Usuário" style="rounded=0;whiteSpace=wrap;html=1;" vertex="1" parent="1">
          <mxGeometry x="40" y="320" width="120" height="60" as="geometry" />
        </mxCell>
        <mxCell id="kNyuiYO4TecIgT9Q91eP-2" value=":ContrataçãoController" style="rounded=0;whiteSpace=wrap;html=1;" vertex="1" parent="1">
          <mxGeometry x="380" y="260" width="140" height="60" as="geometry" />
        </mxCell>
        <mxCell id="kNyuiYO4TecIgT9Q91eP-3" value=":ContrataçãoService" style="rounded=0;whiteSpace=wrap;html=1;" vertex="1" parent="1">
          <mxGeometry x="430" y="140" width="140" height="60" as="geometry" />
        </mxCell>
        <mxCell id="kNyuiYO4TecIgT9Q91eP-4" value=":ChatContrataçãoRepo" style="rounded=0;whiteSpace=wrap;html=1;" vertex="1" parent="1">
          <mxGeometry x="410" width="150" height="60" as="geometry" />
        </mxCell>
        <mxCell id="kNyuiYO4TecIgT9Q91eP-8" value="" style="endArrow=classic;html=1;rounded=0;exitX=1;exitY=0.5;exitDx=0;exitDy=0;entryX=0;entryY=0.5;entryDx=0;entryDy=0;" edge="1" parent="1" source="kNyuiYO4TecIgT9Q91eP-1" target="kNyuiYO4TecIgT9Q91eP-2">
          <mxGeometry width="50" height="50" relative="1" as="geometry">
            <mxPoint x="390" y="440" as="sourcePoint" />
            <mxPoint x="440" y="390" as="targetPoint" />
          </mxGeometry>
        </mxCell>
        <mxCell id="kNyuiYO4TecIgT9Q91eP-10" value="1:solicitarcontratacao(anuncio,detalhes)" style="text;html=1;align=center;verticalAlign=middle;resizable=0;points=[];autosize=1;strokeColor=none;fillColor=none;" vertex="1" parent="1">
          <mxGeometry x="220" y="330" width="240" height="30" as="geometry" />
        </mxCell>
        <mxCell id="kNyuiYO4TecIgT9Q91eP-11" value="" style="endArrow=classic;html=1;rounded=0;exitX=0.25;exitY=0;exitDx=0;exitDy=0;entryX=0.25;entryY=1;entryDx=0;entryDy=0;" edge="1" parent="1" source="kNyuiYO4TecIgT9Q91eP-2" target="kNyuiYO4TecIgT9Q91eP-3">
          <mxGeometry width="50" height="50" relative="1" as="geometry">
            <mxPoint x="390" y="440" as="sourcePoint" />
            <mxPoint x="440" y="390" as="targetPoint" />
          </mxGeometry>
        </mxCell>
        <mxCell id="kNyuiYO4TecIgT9Q91eP-12" value="2: processarContratacao(contratante, servidorId, detalhes)" style="text;html=1;align=center;verticalAlign=middle;whiteSpace=wrap;rounded=0;" vertex="1" parent="1">
          <mxGeometry x="90" y="220" width="360" height="30" as="geometry" />
        </mxCell>
        <mxCell id="kNyuiYO4TecIgT9Q91eP-13" value="" style="endArrow=classic;html=1;rounded=0;exitX=0.5;exitY=0;exitDx=0;exitDy=0;entryX=0.5;entryY=1;entryDx=0;entryDy=0;" edge="1" parent="1" source="kNyuiYO4TecIgT9Q91eP-3" target="kNyuiYO4TecIgT9Q91eP-4">
          <mxGeometry width="50" height="50" relative="1" as="geometry">
            <mxPoint x="390" y="440" as="sourcePoint" />
            <mxPoint x="440" y="390" as="targetPoint" />
          </mxGeometry>
        </mxCell>
        <mxCell id="kNyuiYO4TecIgT9Q91eP-14" value="3:chatc:=buscarOuCriarChat(contratanteId, servidorId): chat ContrataçãoChat" style="text;html=1;align=center;verticalAlign=middle;resizable=0;points=[];autosize=1;strokeColor=none;fillColor=none;" vertex="1" parent="1">
          <mxGeometry x="495" y="80" width="440" height="30" as="geometry" />
        </mxCell>
        <mxCell id="kNyuiYO4TecIgT9Q91eP-16" value="Contratação" style="rounded=0;whiteSpace=wrap;html=1;" vertex="1" parent="1">
          <mxGeometry x="170" y="140" width="120" height="60" as="geometry" />
        </mxCell>
        <mxCell id="kNyuiYO4TecIgT9Q91eP-17" value="" style="endArrow=classic;html=1;rounded=0;exitX=0;exitY=0.5;exitDx=0;exitDy=0;entryX=1;entryY=0.5;entryDx=0;entryDy=0;" edge="1" parent="1" source="kNyuiYO4TecIgT9Q91eP-3" target="kNyuiYO4TecIgT9Q91eP-16">
          <mxGeometry width="50" height="50" relative="1" as="geometry">
            <mxPoint x="390" y="440" as="sourcePoint" />
            <mxPoint x="440" y="390" as="targetPoint" />
          </mxGeometry>
        </mxCell>
        <mxCell id="kNyuiYO4TecIgT9Q91eP-18" value="4:criar(Contratação)" style="text;html=1;align=center;verticalAlign=middle;resizable=0;points=[];autosize=1;strokeColor=none;fillColor=none;" vertex="1" parent="1">
          <mxGeometry x="295" y="140" width="130" height="30" as="geometry" />
        </mxCell>
        <mxCell id="kNyuiYO4TecIgT9Q91eP-19" value=":ContrataçãoRepo" style="rounded=0;whiteSpace=wrap;html=1;" vertex="1" parent="1">
          <mxGeometry x="210" width="120" height="60" as="geometry" />
        </mxCell>
        <mxCell id="kNyuiYO4TecIgT9Q91eP-20" value="" style="endArrow=classic;html=1;rounded=0;exitX=0.164;exitY=0;exitDx=0;exitDy=0;exitPerimeter=0;entryX=0.5;entryY=1;entryDx=0;entryDy=0;" edge="1" parent="1" source="kNyuiYO4TecIgT9Q91eP-3" target="kNyuiYO4TecIgT9Q91eP-19">
          <mxGeometry width="50" height="50" relative="1" as="geometry">
            <mxPoint x="390" y="440" as="sourcePoint" />
            <mxPoint x="440" y="390" as="targetPoint" />
          </mxGeometry>
        </mxCell>
        <mxCell id="kNyuiYO4TecIgT9Q91eP-21" value="5:salvar(contratacao)" style="text;html=1;align=center;verticalAlign=middle;resizable=0;points=[];autosize=1;strokeColor=none;fillColor=none;" vertex="1" parent="1">
          <mxGeometry x="330" y="70" width="140" height="30" as="geometry" />
        </mxCell>
      </root>
    </mxGraphModel>
  </diagram>
</mxfile>
